PathFileType	4	(X/Y/Z)	/Users/rkoike/Documents/python/sports2d/worker-zone-detection_Sports2D/worker-zone-detection_Sports2D_px_person00.trc
DataRate	CameraRate	NumFrames	NumMarkers	Units	OrigDataRate	OrigDataStartFrame	OrigNumFrames
60	60	13	22	m	60	1137	4549
Frame#	Time	Hip			RHip			RKnee			RAnkle			RBigToe			RSmallToe			RHeel			LHip			LKnee			LAnkle			LBigToe			LSmallToe			LHeel			Neck			Head			Nose			RShoulder			RElbow			RWrist			LShoulder			LElbow			LWrist			
		X1	Y1	Z1	X2	Y2	Z2	X3	Y3	Z3	X4	Y4	Z4	X5	Y5	Z5	X6	Y6	Z6	X7	Y7	Z7	X8	Y8	Z8	X9	Y9	Z9	X10	Y10	Z10	X11	Y11	Z11	X12	Y12	Z12	X13	Y13	Z13	X14	Y14	Z14	X15	Y15	Z15	X16	Y16	Z16	X17	Y17	Z17	X18	Y18	Z18	X19	Y19	Z19	X20	Y20	Z20	X21	Y21	Z21	X22	Y22	Z22
1137	18.95	489.34514779648435	548.6956977931076	0.0	530.4799923873217	547.4829697296965	0.0	546.549802226099	674.4258884549231	0.0	559.777393422808	794.0850877350823	0.0	581.9943180148415	781.889805813078	0.0	599.7823011654987	790.9110820787593	0.0	559.3152447337701	812.6675811357911	0.0	452.4828944547554	553.8782834537761	0.0	475.689074198845	679.6725406298863	0.0	491.74127905815857	802.746136724402	0.0	488.1629074553914	795.5708124050861	0.0	472.0916754354107	806.0211845735641	0.0	498.36946583003055	819.5222791664049	0.0	462.47183461276927	317.10087423885307	0.0	451.20080464521277	212.49984998949367	0.0	457.71386755127196	280.1208032276604	0.0	543.9894927540738	352.64650421893265	0.0	583.871236991067	455.59174756483526	0.0	593.3247182567997	530.7161243463763	0.0	388.263420769317	362.61818970380915	0.0	375.0281739957067	468.8227565704792	0.0	389.245302120918	539.6125579438598	0.0
1138	18.966666666666665	489.2761367524037	548.6265658983579	0.0	530.4728612336411	547.5164060078578	0.0	546.5494816991732	674.3719089675914	0.0	559.757808606625	794.1286269260705	0.0	582.2166745625112	781.6630563126461	0.0	599.7875807188792	790.7004264502464	0.0	559.3032998058861	812.6282411213684	0.0	452.4124008240146	553.8225756896725	0.0	475.6604872850554	679.740772498494	0.0	491.7298368915938	802.8774688267257	0.0	488.14297605381967	795.5894043238069	0.0	472.1505110992661	805.9829230820021	0.0	498.36592799044024	819.4880165746251	0.0	462.4733750712852	317.3099010785061	0.0	451.1222583165647	212.68581806903296	0.0	457.7472103970799	280.2119252316636	0.0	543.8439605513256	352.6545550985473	0.0	583.843643158348	455.7791140197336	0.0	593.284598569632	530.9602546093575	0.0	388.3006489472181	362.5891562358775	0.0	375.07411101074365	468.9039586412239	0.0	389.3321281885647	539.9890316257515	0.0
1139	18.983333333333334	489.1686546764976	548.54181907958	0.0	530.4762654279282	547.5018161118217	0.0	546.5491228640205	674.2940209132933	0.0	559.7269427375697	794.1843315990856	0.0	582.3667170137356	781.4939922187866	0.0	599.7032504596023	790.6595333761481	0.0	559.2501371622345	812.6882535333133	0.0	452.32309856257694	553.7554006078859	0.0	475.6061081655855	679.858955461807	0.0	491.7413404584445	802.9230607031485	0.0	488.11928951168704	795.5534714799372	0.0	472.28149682494126	806.0450174007309	0.0	498.30982649124155	819.4929293453876	0.0	462.48613190132295	317.5258235823545	0.0	451.0904561399242	212.81631446686112	0.0	457.7470773339576	280.26580104367935	0.0	543.7220695216371	352.61710658085684	0.0	583.8037444410614	456.0207751082537	0.0	593.2455837868031	531.2484052659751	0.0	388.3555669018475	362.54062305149625	0.0	375.1220224992447	468.83164155424146	0.0	389.41665965278827	540.343200986092	0.0
1140	19.0	489.04013681395156	548.5139093426027	0.0	530.4747707548989	547.4674259169227	0.0	546.5234489557312	674.2510246866012	0.0	559.6958583917005	794.2490217067191	0.0	582.4471255592657	781.3870438406292	0.0	599.569008868432	790.7199235443217	0.0	559.1974126519199	812.7964194973589	0.0	452.2258239854041	553.7395546639044	0.0	475.56713987100073	680.0330434184143	0.0	491.7510969517991	802.8987179548648	0.0	488.0244711012307	795.5190463339096	0.0	472.3556878774698	806.1684620411644	0.0	498.20752545302423	819.5528875847125	0.0	462.49034573086124	317.70726799143375	0.0	451.0947790416828	212.9166956728446	0.0	457.6955573971541	280.23503431539234	0.0	543.6373112336283	352.592778556146	0.0	583.7677190602672	456.3028215770514	0.0	593.2117782594923	531.564940858819	0.0	388.4016797587585	362.4870625030285	0.0	375.15129636260247	468.6006940929378	0.0	389.51421870169116	540.6067237338356	0.0
1141	19.016666666666666	488.9455344605811	548.5528424481519	0.0	530.4631173784575	547.4463750872154	0.0	546.4925635215008	674.254788784419	0.0	559.678832448592	794.2755635153583	0.0	582.5551244847479	781.3268002708043	0.0	599.4777545168596	790.7702500211537	0.0	559.18578865586	812.8394025286649	0.0	452.18161267652516	553.814442835513	0.0	475.5782734803744	680.2173418007565	0.0	491.7583179989163	802.852776986381	0.0	487.86808502556266	795.5359470324314	0.0	472.3061553870249	806.2941307716054	0.0	498.09046184002773	819.6443169793266	0.0	462.45094056302713	317.84154441202276	0.0	451.1168763014685	213.0336322586676	0.0	457.60359641036285	280.15119392473844	0.0	543.5577022789362	352.5800221687118	0.0	583.7496464352965	456.57500112886794	0.0	593.185088403624	531.872787190919	0.0	388.414131928623	362.4621005665862	0.0	375.1464407532728	468.313022204504	0.0	389.62268692229685	540.7544291123811	0.0
1142	19.03333333333333	488.8995182041111	548.6121142149485	0.0	530.4474924675656	547.4816386062087	0.0	546.4722591294565	674.3247416902807	0.0	559.6671068189862	794.2252873903384	0.0	582.6791458125904	781.2922034568961	0.0	599.4221350325372	790.8164730082624	0.0	559.1860539836638	812.7893885288622	0.0	452.23456776762987	553.9669649366213	0.0	475.63274597267093	680.3874255749004	0.0	491.798148963531	802.8147854518003	0.0	487.826625709496	795.5837994567154	0.0	472.2275048165593	806.3870522298814	0.0	497.970160606105	819.7610304137224	0.0	462.3615104920748	317.95392941235355	0.0	451.1516992982943	213.14141217031914	0.0	457.46842192035547	280.12290712477	0.0	543.4460721631937	352.5383612901454	0.0	583.7385202974027	456.81038975517475	0.0	593.1608001379955	532.1565519186969	0.0	388.3947059449317	362.43703167655445	0.0	375.09919165306496	468.09056250129305	0.0	389.73960489384115	540.8794987921735	0.0
1143	19.05	488.84502517740094	548.6737637058156	0.0	530.4193760268467	547.6116554166391	0.0	546.4264585826573	674.4640442582512	0.0	559.6452353238709	794.090876006632	0.0	582.7698592308304	781.253198900569	0.0	599.37334323225	790.8733605642947	0.0	559.1604422921941	812.6931638465535	0.0	452.3406903978358	554.1572140246843	0.0	475.6960951644078	680.5404343938797	0.0	491.8843985712769	802.8170196108844	0.0	488.0182837095929	795.6192605837751	0.0	472.22401351746504	806.4235911567686	0.0	497.86082106764263	819.8839070526201	0.0	462.2438885296435	318.05929155176176	0.0	451.2141059553358	213.1808992725538	0.0	457.29111505475214	280.1882054210094	0.0	543.3139024922484	352.48816967545184	0.0	583.7200944454798	457.0178175999754	0.0	593.1353877750653	532.4607258213124	0.0	388.349175703405	362.3656952872375	0.0	375.010806999925	467.9921041048819	0.0	389.8398912587389	541.0444710080407	0.0
1144	19.066666666666666	488.74188435365005	548.7647129415634	0.0	530.3568437064663	547.8251085541463	0.0	546.3239562339008	674.5994915983122	0.0	559.62188539166	793.9003208345888	0.0	582.880622653865	781.2013223814944	0.0	599.3963754088458	790.8704304674574	0.0	559.1374482647909	812.5733819792896	0.0	452.42300873481923	554.3503573133975	0.0	475.7393039112091	680.6475620451	0.0	491.98787467377764	802.9032794840062	0.0	488.34461448906916	795.6521848528874	0.0	472.2867696933382	806.3919791115296	0.0	497.7983391035571	819.9511274402018	0.0	462.1220901015994	318.1393525005577	0.0	451.31353535504013	213.16142227018352	0.0	457.13100286956865	280.27797925829674	0.0	543.2151905354278	352.51424986830926	0.0	583.703902611204	457.2266985512792	0.0	593.116551662476	532.8498066006995	0.0	388.26470236920153	362.29526064755896	0.0	374.9004692955546	468.03241081738776	0.0	389.8896395064911	541.1616583014597	0.0
1145	19.083333333333332	488.62706541468896	548.9020300167143	0.0	530.2580177687956	548.0590632697887	0.0	546.1993249364438	674.6478143357782	0.0	559.6184487281723	793.7071591932689	0.0	583.0605109573	781.1718412246522	0.0	599.5269914023396	790.7861513982047	0.0	559.1553499565505	812.4216103033282	0.0	452.4565428410598	554.515069523759	0.0	475.7563647527317	680.6820988272534	0.0	492.07667296790675	803.0660926708379	0.0	488.66203362658194	795.708992662541	0.0	472.3816551020844	806.3193420475889	0.0	497.79232076074385	819.9154277259926	0.0	462.02930683340014	318.2013636208651	0.0	451.4334229764523	213.15228150467723	0.0	457.0657357368299	280.3517761132121	0.0	543.2065006949947	352.65945344306505	0.0	583.7053387412636	457.4748248350457	0.0	593.1213666324638	533.3455575112016	0.0	388.14246357924446	362.3227133725866	0.0	374.8016091549606	468.2024668166226	0.0	389.8989274675987	541.1532189326352	0.0
1146	19.1	488.5439662986113	549.0636892101808	0.0	530.1422951491535	548.2571240811819	0.0	546.1052060267928	674.6159034942659	0.0	559.6305090371476	793.5410599529456	0.0	583.2245648028777	781.1904722637844	0.0	599.6467913266354	790.7378684345347	0.0	559.178084753213	812.2595047462154	0.0	452.44831189846246	554.6118108378903	0.0	475.74853635389906	680.6693072769867	0.0	492.12412571301036	803.2299788149656	0.0	488.94317716928134	795.7672613404833	0.0	472.51336912923904	806.2624948410595	0.0	497.8061976325755	819.8105719532676	0.0	461.99561665065204	318.28857695726003	0.0	451.54474200600157	213.19289674603826	0.0	457.1071275350741	280.4443793868029	0.0	543.3099072391138	352.8743496213225	0.0	583.7088927377453	457.77437152003455	0.0	593.1577364419898	533.9180802259799	0.0	388.032006627261	362.4523045836562	0.0	374.7318808314241	468.44999336961774	0.0	389.91479305920257	541.1044514395724	0.0
1147	19.116666666666667	488.4709840827461	549.2202504372813	0.0	530.0206440999946	548.3869148038156	0.0	546.0411728723054	674.5658786226268	0.0	559.6257131528564	793.3893734125033	0.0	583.2827141688011	781.2227510214991	0.0	599.6420653746148	790.8098176321128	0.0	559.1361877396197	812.1259407216904	0.0	452.3734367615886	554.6126351352751	0.0	475.71475832373216	680.643700449936	0.0	492.0834393109659	803.3317200025982	0.0	489.14908466423435	795.8003016672899	0.0	472.63962208501067	806.2456077017787	0.0	497.80554179275316	819.7054988368683	0.0	461.99002395241126	318.39268237795807	0.0	451.63526797449515	213.26993959345052	0.0	457.21340763447256	280.54910681298855	0.0	543.4911683677044	353.08594850855206	0.0	583.6729825252983	458.0881103931984	0.0	593.2122583764373	534.4980262924244	0.0	387.9797451923995	362.60484709822134	0.0	374.68074608159327	468.6987574128394	0.0	389.96426258487213	541.1295149515678	0.0
1148	19.133333333333333	488.36260496629626	549.3657680094838	0.0	529.9054203085736	548.4052795260568	0.0	545.975563323903	674.5106523248214	0.0	559.5895315715771	793.2439563293287	0.0	583.2918043243941	781.2314607753137	0.0	599.5785645619982	790.924917753782	0.0	559.0179821447297	812.0224276800994	0.0	452.2045876543652	554.5330213470755	0.0	475.6609175688917	680.594319466363	0.0	491.9214364746718	803.3806016378776	0.0	489.14138463418095	795.8462791238053	0.0	472.6616741226249	806.2397402549894	0.0	497.7892924336356	819.6231286503194	0.0	461.93761201099625	318.4446624584717	0.0	451.72020608828655	213.36176112990842	0.0	457.35006595817447	280.59192363182154	0.0	543.6766877261118	353.2630947047012	0.0	583.5770241662581	458.3554632198546	0.0	593.2716961576037	534.9898017266938	0.0	387.95726566139615	362.7428885446015	0.0	374.64177264198764	468.9076875146904	0.0	390.04052137641247	541.2069064540492	0.0
1149	19.15	488.21337731511454	549.493183000008	0.0	529.8298715609751	548.2874513411772	0.0	545.9065650017428	674.420662591614	0.0	559.5499200246479	793.1299334772427	0.0	583.3267355041542	781.2403807305607	0.0	599.5644501283809	791.0075191307484	0.0	558.8564927466803	811.9456268344837	0.0	451.985207795948	554.4208624392646	0.0	475.5915136300411	680.5184767043437	0.0	491.6814224807218	803.4107990484639	0.0	488.90031624309813	795.9588163773743	0.0	472.5864576142527	806.2304390508752	0.0	497.76621373671634	819.5773219102485	0.0	461.8194320786461	318.414135398569	0.0	451.8182521979682	213.44725640879108	0.0	457.498054783317	280.55929591567985	0.0	543.7895605945882	353.3963524086542	0.0	583.4449746651449	458.5449936504852	0.0	593.3441180552923	535.3305136910787	0.0	387.902239386088	362.87584447479804	0.0	374.631625358576	469.0890277837192	0.0	390.126903223928	541.2801911385329	0.0
